<svg width="24" height="25" viewBox="0 0 24 25" fill="none" xmlns="http://www.w3.org/2000/svg">
<rect width="24" height="24" transform="matrix(-1 0 0 1 24 0.5)" fill="#FBFAFF"/>
<path d="M2.50003 18.5L9.14286 12.5M14.8571 12.5L21.5 18.5M22 7.5L13.8351 13.2154C13.1739 13.6783 12.8433 13.9097 12.4837 13.9993C12.1661 14.0785 11.8339 14.0785 11.5163 13.9993C11.1567 13.9097 10.8261 13.6783 10.1649 13.2154L2 7.5M17.2 20.5H6.8C5.11984 20.5 4.27976 20.5 3.63803 20.173C3.07354 19.8854 2.6146 19.4265 2.32698 18.862C2 18.2202 2 17.3802 2 15.7V9.3C2 7.61984 2 6.77976 2.32698 6.13803C2.6146 5.57354 3.07354 5.1146 3.63803 4.82698C4.27976 4.5 5.11984 4.5 6.8 4.5H17.2C18.8802 4.5 19.7202 4.5 20.362 4.82698C20.9265 5.1146 21.3854 5.57354 21.673 6.13803C22 6.77976 22 7.61984 22 9.3V15.7C22 17.3802 22 18.2202 21.673 18.862C21.3854 19.4265 20.9265 19.8854 20.362 20.173C19.7202 20.5 18.8802 20.5 17.2 20.5Z" stroke="#7D2DFE" stroke-width="2" stroke-linecap="round" stroke-linejoin="round"/>
</svg>
