<svg width="24" height="24" viewBox="0 0 24 24" fill="none" xmlns="http://www.w3.org/2000/svg">
<rect width="24" height="24" rx="4" fill="#31126D"/>
<path fill-rule="evenodd" clip-rule="evenodd" d="M16.1978 8.67938C16.1334 8.60609 16.041 8.5636 15.9434 8.5625H13.3516V7.59313C13.3516 7.40063 13.3928 7.18063 13.7022 7.18063H15.7647C15.8564 7.18453 15.9449 7.1466 16.0053 7.0775C16.0659 7.01464 16.1003 6.93106 16.1015 6.84375V4.09375C16.1015 3.9039 15.9476 3.75 15.7578 3.75H12.7809C9.48093 3.75 9.22656 6.56875 9.22656 7.42813V8.5625H7.50781C7.31796 8.5625 7.16406 8.7164 7.16406 8.90625V11.6563C7.16406 11.8461 7.31796 12 7.50781 12H9.22656V19.9063C9.22656 20.0961 9.38046 20.25 9.57031 20.25H13.0078C13.1977 20.25 13.3516 20.0961 13.3516 19.9063V12H15.6547C15.8319 12.0009 15.9807 11.8669 15.9984 11.6906L16.2872 8.94063C16.2952 8.84488 16.2628 8.75014 16.1978 8.67938Z" fill="white"/>
</svg>
