<svg width="24" height="24" viewBox="0 0 24 24" fill="none" xmlns="http://www.w3.org/2000/svg">
<rect width="24" height="24" rx="4" fill="#31126D"/>
<path fill-rule="evenodd" clip-rule="evenodd" d="M7.875 9.75C8.08211 9.75 8.25 9.91789 8.25 10.125V19.875C8.25 20.0821 8.08211 20.25 7.875 20.25H4.875C4.66789 20.25 4.5 20.0821 4.5 19.875V10.125C4.5 9.91789 4.66789 9.75 4.875 9.75H7.875ZM15.4896 9.3735L15.6675 9.375C17.848 9.375 19.4217 10.6814 19.4972 13.3707L19.5 13.575V19.875C19.5 20.0591 19.3673 20.2122 19.1924 20.244L19.125 20.25H16.875C16.6909 20.25 16.5378 20.1173 16.506 19.9424L16.5 19.875V14.25C16.5 13.2145 15.6605 12.375 14.625 12.375C13.6309 12.375 12.8175 13.1487 12.754 14.1267L12.75 14.25V19.875C12.75 20.0591 12.6173 20.2122 12.4424 20.244L12.375 20.25H10.125C9.94091 20.25 9.78779 20.1173 9.75604 19.9424L9.75 19.875V10.125C9.75 9.94091 9.88266 9.78779 10.0576 9.75604L10.125 9.75H12.375C12.5591 9.75 12.7122 9.88266 12.744 10.0576L12.75 10.125C12.7495 10.2536 12.8291 10.369 12.9495 10.4142C13.07 10.4593 13.2058 10.4248 13.29 10.3275C13.8709 9.73101 14.6619 9.38983 15.4896 9.3735ZM6.36 4.5C7.38725 4.5 8.22 5.33947 8.22 6.375C8.22 7.41053 7.38725 8.25 6.36 8.25C5.33275 8.25 4.5 7.41053 4.5 6.375C4.5 5.33947 5.33275 4.5 6.36 4.5Z" fill="white"/>
</svg>
