<svg width="24" height="24" viewBox="0 0 24 24" fill="none" xmlns="http://www.w3.org/2000/svg">
<rect width="24" height="24" rx="4" fill="#31126D"/>
<path fill-rule="evenodd" clip-rule="evenodd" d="M20.1212 8.51125C20.2248 8.42833 20.2711 8.29631 20.2409 8.16988C20.2107 8.04345 20.1092 7.94416 19.9784 7.91312L19.4144 7.77562C19.3105 7.75059 19.2238 7.68199 19.1782 7.58875C19.1325 7.4955 19.1327 7.38745 19.1788 7.29437L19.4929 6.6825C19.5535 6.56142 19.5353 6.41743 19.4462 6.31394C19.3572 6.21044 19.2136 6.16642 19.0788 6.20125L17.6509 6.58625C17.543 6.61655 17.4266 6.59617 17.3367 6.53125C16.7188 6.08499 15.9672 5.84375 15.1948 5.84375C13.2233 5.84375 11.625 7.38277 11.625 9.28125V9.52875C11.6257 9.61617 11.5581 9.69014 11.468 9.70062C9.46171 9.9275 7.54115 8.94437 5.47065 6.64812C5.37895 6.55074 5.23838 6.51093 5.10653 6.545C4.98785 6.59753 4.90844 6.70827 4.89948 6.83375C4.61351 7.96492 4.72913 9.15573 5.22791 10.2162C5.25799 10.2736 5.25235 10.3423 5.21329 10.3944C5.17423 10.4465 5.10826 10.4732 5.04228 10.4637L4.24264 10.3125C4.12738 10.2947 4.01034 10.3322 3.92923 10.413C3.84812 10.4939 3.81318 10.6078 3.83568 10.7181C3.96054 11.7869 4.58312 12.7431 5.52777 13.3169C5.58935 13.3456 5.62846 13.4057 5.62846 13.4716C5.62846 13.5374 5.58935 13.5975 5.52777 13.6262L5.14937 13.7706C5.05646 13.8065 4.98345 13.8783 4.94815 13.9685C4.91286 14.0587 4.91851 14.159 4.96374 14.245C5.3885 15.14 6.2424 15.7772 7.24842 15.95C7.31901 15.9747 7.36602 16.0392 7.36602 16.1116C7.36602 16.1839 7.31901 16.2485 7.24842 16.2731C6.27769 16.6597 5.23595 16.8538 4.18552 16.8437C3.98836 16.8058 3.79657 16.9289 3.75714 17.1187C3.71771 17.3086 3.84557 17.4933 4.04273 17.5312C5.86158 18.3619 7.84186 18.814 9.85439 18.8581C11.6246 18.8841 13.3634 18.4058 14.8521 17.4831C17.3394 15.8843 18.8298 13.1922 18.8218 10.3125V9.71437C18.8227 9.61334 18.8697 9.51779 18.9503 9.45312L20.1212 8.51125Z" fill="white"/>
</svg>
