<svg width="24" height="25" viewBox="0 0 24 25" fill="none" xmlns="http://www.w3.org/2000/svg">
<path d="M21 6.66406H17.8C16.1198 6.66406 15.2798 6.66406 14.638 6.99104C14.0735 7.27866 13.6146 7.7376 13.327 8.30209C13 8.94383 13 9.78391 13 11.4641V12.6641M21 6.66406L18 3.66406M21 6.66406L18 9.66406M10 3.66406H7.8C6.11984 3.66406 5.27976 3.66406 4.63803 3.99104C4.07354 4.27866 3.6146 4.7376 3.32698 5.30209C3 5.94383 3 6.7839 3 8.46406V16.8641C3 18.5442 3 19.3843 3.32698 20.026C3.6146 20.5905 4.07354 21.0495 4.63803 21.3371C5.27976 21.6641 6.11984 21.6641 7.8 21.6641H16.2C17.8802 21.6641 18.7202 21.6641 19.362 21.3371C19.9265 21.0495 20.3854 20.5905 20.673 20.026C21 19.3843 21 18.5442 21 16.8641V14.6641" stroke="#31126D" stroke-width="2" stroke-linecap="round" stroke-linejoin="round"/>
</svg>
