<svg width="212" height="212" viewBox="0 0 212 212" fill="none" xmlns="http://www.w3.org/2000/svg">
<path d="M210.615 84.9743C209.815 83.7374 208.164 83.3828 206.927 84.1823C205.691 84.9818 205.336 86.6326 206.135 87.8695C206.935 89.1063 208.586 89.4609 209.823 88.6614C211.059 87.862 211.414 86.2112 210.615 84.9743ZM208.45 85.9275L24.3617 58.11L24.2123 59.0988L208.3 86.9163L208.45 85.9275Z" fill="#71E5AF"/>
<rect x="38.1133" y="61.5781" width="19.1518" height="19.6694" rx="9.57591" transform="rotate(147.123 38.1133 61.5781)" fill="#71E5AF"/>
<g filter="url(#filter0_f_2176_3681)">
<path d="M39.7422 104.461L59.6408 70.6274L78.9922 36.4779L118.242 36.7939L157.492 36.4779L176.844 70.6274L196.742 104.461L176.844 138.294L157.492 172.444L118.242 172.128L78.9922 172.444L59.6408 138.294L39.7422 104.461Z" fill="#31126D"/>
<path d="M60.9338 71.3879L60.9399 71.3775L60.9459 71.367L79.8623 37.985L118.23 38.2939L118.242 38.294L118.254 38.2939L156.622 37.985L175.538 71.367L175.544 71.3775L175.551 71.3879L195.002 104.461L175.551 137.534L175.544 137.544L175.538 137.555L156.622 170.937L118.254 170.628L118.242 170.628L118.23 170.628L79.8623 170.937L60.9459 137.555L60.9399 137.544L60.9338 137.534L41.4824 104.461L60.9338 71.3879Z" stroke="#71E5AF" stroke-opacity="0.2" stroke-width="3"/>
</g>
<path d="M92.152 100.993C92.5021 102.424 93.9456 103.3 95.3761 102.95C96.8067 102.599 97.6825 101.156 97.3324 99.7254C96.9823 98.2949 95.5388 97.419 94.1082 97.7692C92.6777 98.1193 91.8018 99.5628 92.152 100.993ZM94.5301 100.812L199.186 149.838L199.61 148.932L94.9543 99.9066L94.5301 100.812Z" fill="#71E5AF"/>
<rect x="187.309" y="142.047" width="19.1518" height="19.6694" rx="9.57591" transform="rotate(-13.7528 187.309 142.047)" fill="#71E5AF"/>
<defs>
<filter id="filter0_f_2176_3681" x="35.7422" y="32.4766" width="165" height="143.969" filterUnits="userSpaceOnUse" color-interpolation-filters="sRGB">
<feFlood flood-opacity="0" result="BackgroundImageFix"/>
<feBlend mode="normal" in="SourceGraphic" in2="BackgroundImageFix" result="shape"/>
<feGaussianBlur stdDeviation="2" result="effect1_foregroundBlur_2176_3681"/>
</filter>
</defs>
</svg>
