<svg width="212" height="212" viewBox="0 0 212 212" fill="none" xmlns="http://www.w3.org/2000/svg">
<path d="M9.67932 58.7668C10.0294 60.1973 11.473 61.0732 12.9035 60.723C14.334 60.3729 15.2099 58.9294 14.8597 57.4989C14.5096 56.0683 13.0661 55.1925 11.6356 55.5426C10.205 55.8927 9.32919 57.3362 9.67932 58.7668ZM12.0574 58.5856L116.713 107.611L117.137 106.705L12.4816 57.68L12.0574 58.5856Z" fill="#71E5AF"/>
<path d="M46.0387 46.0871C46.3888 47.5176 47.8323 48.3935 49.2629 48.0433C50.6934 47.6932 51.5692 46.2497 51.2191 44.8192C50.869 43.3886 49.4255 42.5128 47.9949 42.8629C46.5644 43.213 45.6886 44.6565 46.0387 46.0871ZM48.2937 45.8241L116.589 107.529L117.259 106.787L48.9641 45.0821L48.2937 45.8241Z" fill="#71E5AF"/>
<path d="M116.604 3.4056C115.775 4.62304 116.091 6.28182 117.308 7.1106C118.525 7.93939 120.184 7.62433 121.013 6.4069C121.842 5.18946 121.527 3.53068 120.309 2.7019C119.092 1.87311 117.433 2.18817 116.604 3.4056ZM118.309 4.89705L116.427 107.151L117.427 107.169L119.309 4.91545L118.309 4.89705Z" fill="#71E5AF"/>
<path d="M60.8082 19.4855C61.1583 20.9161 62.6019 21.7919 64.0324 21.4418C65.4629 21.0917 66.3388 19.6481 65.9887 18.2176C65.6385 16.7871 64.195 15.9112 62.7645 16.2613C61.3339 16.6115 60.4581 18.055 60.8082 19.4855ZM62.9709 19.1107L116.499 107.417L117.354 106.899L63.826 18.5924L62.9709 19.1107Z" fill="#71E5AF"/>
<path d="M86.3011 15.0204C85.9241 16.4441 86.7725 17.9038 88.1962 18.2809C89.6198 18.658 91.0796 17.8095 91.4567 16.3859C91.8338 14.9622 90.9853 13.5024 89.5616 13.1253C88.138 12.7483 86.6782 13.5967 86.3011 15.0204ZM88.4009 15.8497L116.447 107.304L117.403 107.011L89.3569 15.5565L88.4009 15.8497Z" fill="#71E5AF"/>
<rect x="104.836" y="99.8203" width="19.1518" height="19.6694" rx="9.57591" transform="rotate(-13.7528 104.836 99.8203)" fill="#71E5AF"/>
<g opacity="0.2" filter="url(#filter0_f_2176_3656)">
<path d="M59.1916 73.4269L59.1977 73.4165L59.2037 73.406L78.1201 40.024L116.488 40.333L116.5 40.3331L116.512 40.333L154.88 40.024L173.796 73.406L173.802 73.4165L173.808 73.4269L193.26 106.5L173.808 139.573L173.802 139.583L173.796 139.594L154.88 172.976L116.512 172.667L116.5 172.667L116.488 172.667L78.1201 172.976L59.2037 139.594L59.1977 139.583L59.1916 139.573L39.7402 106.5L59.1916 73.4269Z" stroke="#71E5AF" stroke-width="3"/>
</g>
<defs>
<filter id="filter0_f_2176_3656" x="34" y="34.5156" width="165" height="143.969" filterUnits="userSpaceOnUse" color-interpolation-filters="sRGB">
<feFlood flood-opacity="0" result="BackgroundImageFix"/>
<feBlend mode="normal" in="SourceGraphic" in2="BackgroundImageFix" result="shape"/>
<feGaussianBlur stdDeviation="2" result="effect1_foregroundBlur_2176_3656"/>
</filter>
</defs>
</svg>
